<svg xmlns="http://www.w3.org/2000/svg" style="display: none;"><symbol id="glove" viewBox="0 0 512 512"><title></title><g> <g> <path d="M381.772,147.939c-9.228-0.241-17.926,2.963-24.741,9.04c-7.063-9.536-18.161-15.862-30.62-16.181 c-10.758-0.29-20.919,3.699-28.608,11.194c-0.765,0.746-1.496,1.517-2.192,2.312c-7.058-7.97-17.161-13.114-28.366-13.401 c-7.359-0.194-14.457,1.612-20.669,5.169V39.908C246.573,17.903,229.268,0,207.998,0c-22.818,0-40.693,17.237-40.693,39.241 v109.325c-9.725-13.693-27.559-20.198-44.399-14.823c-20.717,6.626-32.232,28.806-25.776,49.544l50.904,195.401 c0.039,0.152,0.083,0.304,0.13,0.454c3.446,11.06,12.528,19.026,23.53,21.227l-0.023,101.628 c-0.001,2.653,1.053,5.197,2.928,7.073c1.876,1.876,4.42,2.93,7.072,2.93H385.19c5.521,0,9.999-4.476,10-9.998l0.023-102.545 c12.44-4.077,21.45-15.79,21.45-29.574V184.335C416.664,164.76,401.011,148.433,381.772,147.939z M375.2,456.372H252.558 c-5.522,0-10,4.477-10,10c0,5.523,4.478,10,10,10h122.637l-0.004,15.63H191.672l0.013-54.961h122.668c5.522,0,10-4.477,10-10 c0-5.523-4.478-10-10-10H191.689l0.004-16.023h183.52L375.2,456.372z M396.665,369.884L396.665,369.884 c-0.001,6.132-4.989,11.12-11.121,11.12H177.873c-4.827,0-9.045-3.055-10.556-7.622l-50.899-195.38 c-0.045-0.174-0.096-0.348-0.15-0.52c-3.293-10.317,2.418-21.393,12.725-24.688c10.314-3.294,21.389,2.414,24.688,12.743 l14.104,43.892c1.506,4.689,6.2,7.581,11.068,6.82c4.866-0.763,8.452-4.954,8.452-9.879V39.241c0-10.79,9.09-19.241,20.693-19.241 c10.243,0,18.576,8.931,18.576,19.908v148.687c0,5.523,4.478,10,10,10s10-4.477,10-10v-8.071c0-5.34,2.106-10.335,5.932-14.063 c3.822-3.726,8.828-5.702,14.227-5.566c10.323,0.265,18.76,9.006,19.101,19.627l0.011,13.212c0.005,5.52,4.48,9.992,10,9.992 c0.001,0,0.003,0,0.004,0c5.521-0.003,9.996-4.479,9.996-10V181.19c0-0.306-0.004-0.61-0.011-0.915 c0.037-5.315,2.14-10.269,5.93-13.963c3.795-3.699,8.796-5.657,14.138-5.523c10.539,0.27,19.112,9.375,19.112,20.295v15.047 c0,5.523,4.478,10,10,10s10-4.477,10-10v-12.379c0-4.305,1.698-8.331,4.781-11.336c3.081-3.003,7.162-4.592,11.469-4.486 c8.494,0.218,15.404,7.576,15.404,16.403V369.884z"/> </g> </g><g> <g> <path d="M360.159,222.954H196.587c-5.522,0-10,4.477-10,10v111.25c0,5.523,4.478,10,10,10h163.573c5.522,0,10-4.477,10-10v-111.25 C370.159,227.431,365.681,222.954,360.159,222.954z M350.159,334.203H206.586v-91.25h143.573V334.203z"/> </g> </g><g> <g> <path d="M292.514,283.502c2.384,0,4.768-2.508,4.768-6.061c0-3.345-2.276-5.957-4.66-5.957h-7.586l2.384-11.6 c-0.108-4.389-3.901-5.957-7.694-5.957c-3.251,0-6.611,1.254-7.044,3.344l-2.818,14.213h-11.163l2.276-11.6 c0-4.389-3.793-5.957-7.586-5.957c-3.251,0-6.611,1.254-7.044,3.344l-2.818,14.213h-10.079c-2.818,0-4.66,2.717-4.66,6.166 c0,3.553,1.734,5.852,4.551,5.852h7.694l-2.276,11.287h-9.97c-2.709,0-4.66,2.717-4.66,6.166c0,3.553,1.842,5.852,4.552,5.852 h7.586l-2.384,12.749c0,3.972,4.66,5.957,8.236,5.957c2.601,0,6.069-1.567,6.503-3.553l3.035-15.154h10.946l-2.493,12.749 c0,3.972,4.768,5.957,8.345,5.957c2.709,0,6.069-1.567,6.502-3.553l3.034-15.152h9.862c2.384,0,4.877-2.403,4.877-6.061 c0-3.345-2.384-5.957-4.768-5.957h-7.586l2.384-11.287H292.514z M265.095,294.789h-11.054l2.276-11.287h11.054L265.095,294.789z"/> </g> </g><g> <g> <path d="M325.136,251.839c-1.192,0-2.276,0.209-3.143,0.731l-14.305,8.36c-2.167,1.255-3.143,3.345-3.143,5.539 c0.001,3.239,2.168,6.479,5.311,6.479c0.759,0,1.734-0.209,2.709-0.835l3.143-1.881v53.192c0,3.345,4.226,5.016,8.453,5.016 s8.453-1.672,8.453-5.016V256.96C332.614,253.824,328.604,251.839,325.136,251.839z"/> </g> </g><g> <g> <path d="M358.814,425.082c-0.13-0.64-0.33-1.26-0.58-1.87c-0.25-0.6-0.55-1.18-0.909-1.72c-0.37-0.55-0.79-1.06-1.25-1.52 c-0.46-0.46-0.971-0.88-1.521-1.25c-0.54-0.36-1.12-0.67-1.72-0.92c-0.61-0.25-1.24-0.44-1.88-0.57c-1.29-0.26-2.61-0.26-3.9,0 c-0.64,0.13-1.27,0.32-1.87,0.57c-0.609,0.25-1.189,0.56-1.729,0.92c-0.55,0.37-1.06,0.79-1.521,1.25 c-1.859,1.86-2.93,4.44-2.93,7.07c0,2.63,1.07,5.2,2.93,7.07c0.46,0.46,0.971,0.88,1.521,1.24c0.54,0.36,1.12,0.67,1.729,0.92 c0.601,0.25,1.23,0.44,1.87,0.57c0.641,0.13,1.3,0.2,1.95,0.2c0.65,0,1.31-0.07,1.95-0.2s1.27-0.32,1.88-0.57 c0.6-0.25,1.18-0.56,1.72-0.92c0.55-0.36,1.061-0.78,1.521-1.24c0.46-0.46,0.88-0.97,1.25-1.52c0.359-0.54,0.659-1.12,0.909-1.73 c0.25-0.6,0.45-1.23,0.58-1.87c0.12-0.64,0.19-1.3,0.19-1.95C359.004,426.382,358.934,425.732,358.814,425.082z"/> </g> </g><g> <g> <path d="M227.707,464.421c-0.128-0.64-0.319-1.27-0.569-1.88c-0.25-0.6-0.56-1.18-0.92-1.72c-0.36-0.55-0.78-1.06-1.24-1.52 c-0.46-0.46-0.98-0.88-1.52-1.24c-0.55-0.36-1.13-0.671-1.73-0.921c-0.6-0.25-1.23-0.45-1.87-0.57c-1.29-0.26-2.62-0.26-3.909,0 c-0.641,0.12-1.27,0.32-1.87,0.57c-0.601,0.25-1.181,0.56-1.73,0.921c-0.54,0.36-1.06,0.78-1.52,1.24 c-1.86,1.86-2.931,4.44-2.931,7.07c0,0.65,0.07,1.31,0.2,1.95c0.13,0.64,0.32,1.27,0.57,1.88c0.25,0.6,0.56,1.18,0.92,1.72 c0.36,0.55,0.78,1.06,1.24,1.52c0.46,0.46,0.979,0.88,1.52,1.24c0.55,0.36,1.13,0.67,1.73,0.92s1.229,0.45,1.87,0.57 c0.649,0.13,1.3,0.2,1.96,0.2c0.649,0,1.31-0.07,1.949-0.2c0.641-0.12,1.27-0.32,1.87-0.57c0.601-0.25,1.181-0.56,1.73-0.92 c0.54-0.36,1.06-0.78,1.52-1.24c0.46-0.46,0.88-0.97,1.24-1.52c0.36-0.54,0.67-1.12,0.92-1.72c0.25-0.61,0.44-1.24,0.57-1.88 s0.189-1.3,0.189-1.95C227.896,465.721,227.836,465.062,227.707,464.421z"/> </g> </g></symbol><symbol id="medal" viewBox="0 0 511.999 511.999"><title></title><g> <g> <path d="M321.356,63.796c-56.318-28.458-124.159-17.577-168.81,27.075c-51.895,51.894-57.089,134.64-12.081,192.474 c1.591,2.044,3.969,3.114,6.373,3.114c1.732,0,3.477-0.555,4.95-1.702c3.517-2.737,4.149-7.806,1.413-11.323 c-40.019-51.422-35.394-125.002,10.757-171.153c39.71-39.712,100.038-49.39,150.122-24.083c3.976,2.012,8.83,0.414,10.84-3.563 C326.929,70.658,325.335,65.805,321.356,63.796z"/> </g> </g><g> <g> <path d="M385.787,128.239c-2.01-3.977-6.861-5.573-10.841-3.565c-3.977,2.009-5.574,6.861-3.565,10.84 c25.289,50.076,15.606,110.396-24.095,150.096c-46.152,46.15-119.731,50.774-171.153,10.757 c-3.518-2.736-8.586-2.104-11.323,1.412c-2.737,3.517-2.104,8.586,1.413,11.323c26.344,20.502,57.855,30.586,89.266,30.586 c37.547,0,74.952-14.411,103.209-42.668C403.339,252.38,414.225,184.552,385.787,128.239z"/> </g> </g><g> <g> <path d="M364.94,97.508c-1.999-2.262-4.099-4.496-6.242-6.638c-2.143-2.143-4.376-4.243-6.638-6.242 c-3.339-2.952-8.439-2.636-11.388,0.703c-2.953,3.338-2.639,8.437,0.7,11.388c2.015,1.78,4.005,3.652,5.915,5.561 c1.908,1.91,3.78,3.899,5.561,5.914c1.594,1.804,3.816,2.725,6.049,2.725c1.899,0,3.805-0.667,5.34-2.023 C367.577,105.946,367.891,100.847,364.94,97.508z"/> </g> </g><g> <g> <path d="M446.066,208.41c5.38-8.827,5.38-19.791-0.002-28.616l-10.615-17.407c-1.398-2.294-1.939-5.018-1.521-7.67l3.164-20.103 c1.613-10.245-2.596-20.398-10.982-26.499l-16.451-11.966c-2.175-1.583-3.721-3.892-4.354-6.506l-4.791-19.799 c-2.432-10.057-10.191-17.815-20.247-20.249l-19.8-4.792c-2.614-0.633-4.925-2.179-6.506-4.354l-11.968-16.455 c-6.1-8.386-16.254-12.597-26.496-10.983l-20.11,3.164c-2.652,0.417-5.377-0.123-7.669-1.521L270.308,4.036 c-8.826-5.382-19.79-5.381-28.616,0l-17.408,10.615c-2.292,1.399-5.015,1.937-7.67,1.521l-20.104-3.164 c-10.242-1.612-20.397,2.597-26.497,10.983l-11.966,16.451c-1.583,2.175-3.893,3.721-6.508,4.354l-19.799,4.791 c-10.055,2.432-17.815,10.191-20.249,20.247l-4.792,19.8c-0.633,2.614-2.178,4.925-4.354,6.506L85.89,108.108 c-8.386,6.099-12.594,16.251-10.983,26.496l3.164,20.111c0.417,2.653-0.123,5.377-1.521,7.669l-10.617,17.411 c-5.38,8.826-5.38,19.79,0.001,28.615l10.615,17.408c1.398,2.294,1.939,5.018,1.521,7.67l-3.164,20.104 c-1.613,10.244,2.596,20.398,10.982,26.498l16.451,11.966c2.175,1.581,3.721,3.892,4.354,6.506l4.791,19.799 c2.432,10.057,10.191,17.815,20.247,20.249l8.268,2.001L84.045,465.425c-1.189,2.653-0.86,5.739,0.863,8.081 c1.722,2.342,4.569,3.577,7.457,3.231l45.022-5.383l25.936,37.191c1.518,2.175,3.995,3.453,6.616,3.453 c0.251,0,0.505-0.012,0.757-0.035c2.894-0.272,5.419-2.081,6.608-4.732l57.145-127.479l7.241,4.415 c4.413,2.691,9.36,4.036,14.308,4.036c4.948,0,9.895-1.346,14.308-4.036l7.502-4.574l57.217,127.638 c1.189,2.653,3.713,4.46,6.608,4.732c0.253,0.024,0.506,0.036,0.757,0.036c2.621,0,5.099-1.278,6.616-3.453l25.936-37.191 l45.022,5.383c2.886,0.343,5.735-0.889,7.457-3.231c1.722-2.342,2.053-5.428,0.863-8.081l-55.983-124.883l7.957-1.925 c10.055-2.432,17.815-10.191,20.249-20.247l4.792-19.8c0.633-2.614,2.179-4.925,4.354-6.506l16.455-11.968 c8.386-6.099,12.594-16.251,10.983-26.496l-3.164-20.111c-0.417-2.653,0.123-5.377,1.521-7.669L446.066,208.41z M168.408,487.627 l-20.554-29.474c-1.704-2.444-4.618-3.752-7.576-3.396l-35.679,4.266L155.578,345.3c0.932,0.685,1.768,1.506,2.457,2.455 l11.968,16.455c1.137,1.563,2.415,2.98,3.808,4.242l-26.833,59.857c-1.822,4.067-0.004,8.84,4.062,10.663 c1.072,0.481,2.193,0.708,3.295,0.708c3.082,0,6.026-1.776,7.367-4.77l26.738-59.644c2.631,0.361,5.34,0.355,8.059-0.073 l20.11-3.164c1.204-0.189,2.421-0.172,3.606,0.024L168.408,487.627z M407.732,459.021l-35.68-4.264 c-2.961-0.355-5.872,0.952-7.576,3.396l-20.554,29.474l-51.829-115.619c1.087-0.148,2.196-0.148,3.293,0.024l20.103,3.164 c2.829,0.445,5.648,0.431,8.379,0.024l26.758,59.692c1.343,2.995,4.285,4.77,7.367,4.77c1.103,0,2.224-0.227,3.295-0.708 c4.066-1.822,5.885-6.597,4.062-10.663l-26.935-60.085c1.299-1.206,2.5-2.541,3.571-4.013l11.966-16.451 c0.754-1.037,1.678-1.926,2.716-2.645L407.732,459.021z M432.287,200.008l-10.617,17.411c-3.385,5.554-4.695,12.152-3.684,18.578 l3.164,20.11c0.665,4.229-1.073,8.42-4.534,10.938l-16.456,11.969c-5.267,3.832-9.013,9.429-10.545,15.76l-4.792,19.8 c-1.005,4.151-4.207,7.354-8.359,8.359l-19.8,4.791c-6.332,1.532-11.93,5.278-15.762,10.546l-11.966,16.451 c-2.518,3.463-6.708,5.199-10.939,4.533l-20.104-3.164c-6.427-1.011-13.026,0.297-18.581,3.684l-17.407,10.615 c-3.643,2.22-8.171,2.22-11.812,0l-17.411-10.616c-4.33-2.641-9.294-4.017-14.317-4.017c-1.42,0-2.847,0.11-4.262,0.333 l-20.111,3.164c-4.23,0.666-8.42-1.073-10.938-4.534l-11.969-16.455c-3.832-5.267-9.429-9.013-15.76-10.545l-19.8-4.792 c-4.151-1.005-7.354-4.207-8.359-8.359l-4.791-19.799c-1.532-6.332-5.277-11.931-10.546-15.763l-16.45-11.967 c-3.462-2.518-5.199-6.71-4.533-10.939l3.164-20.104c1.011-6.427-0.297-13.025-3.684-18.58l-10.615-17.409 c-2.221-3.643-2.221-8.17,0-11.812l10.617-17.411c3.386-5.554,4.695-12.152,3.684-18.578l-3.164-20.11 c-0.665-4.229,1.073-8.42,4.534-10.938l16.456-11.969c5.267-3.832,9.013-9.429,10.545-15.76l4.792-19.8 c1.005-4.151,4.207-7.354,8.359-8.359l19.8-4.791c6.332-1.532,11.93-5.278,15.761-10.546l11.966-16.451 c2.518-3.462,6.708-5.201,10.939-4.534l20.104,3.164c6.428,1.013,13.027-0.297,18.581-3.684l17.407-10.615 c3.643-2.22,8.171-2.22,11.812,0l17.411,10.616c5.554,3.388,12.154,4.697,18.579,3.685l20.111-3.164 c4.228-0.663,8.42,1.073,10.938,4.534l11.969,16.455c3.832,5.267,9.429,9.013,15.76,10.545l19.8,4.792 c4.151,1.005,7.354,4.207,8.359,8.359l4.791,19.799c1.532,6.332,5.277,11.931,10.546,15.763l16.451,11.966 c3.462,2.518,5.199,6.71,4.533,10.939l-3.164,20.104c-1.011,6.427,0.297,13.025,3.684,18.58l10.615,17.409 C434.509,191.838,434.509,196.365,432.287,200.008z"/> </g> </g><g> <g> <path d="M350.416,168.997c-1.778-5.474-6.433-9.296-12.149-9.974l-48.551-5.757l-20.478-44.395 c-2.411-5.226-7.484-8.473-13.24-8.473c-5.755,0-10.829,3.247-13.24,8.473l-20.478,44.396l-48.551,5.757 c-5.716,0.678-10.372,4.5-12.149,9.974c-1.778,5.471-0.258,11.3,3.966,15.207l35.895,33.195l-9.528,47.954 c-1.121,5.646,1.075,11.254,5.732,14.636c2.569,1.866,5.55,2.811,8.55,2.811c2.439,0,4.889-0.624,7.14-1.884l42.662-23.879 l42.662,23.879c5.023,2.812,11.034,2.457,15.691-0.926c4.657-3.383,6.853-8.992,5.731-14.637l-9.528-47.953l35.895-33.195 C350.674,180.299,352.194,174.471,350.416,168.997z M296.282,208.62c-2.06,1.905-2.982,4.744-2.436,7.496l9.75,49.071 l-43.658-24.437c-1.224-0.685-2.582-1.028-3.941-1.028c-1.359,0-2.716,0.342-3.941,1.028l-43.658,24.437l9.75-49.071 c0.548-2.753-0.375-5.591-2.436-7.496L178.98,174.65l49.686-5.891c2.786-0.33,5.201-2.085,6.377-4.632l20.955-45.431 l20.955,45.431c1.176,2.547,3.59,4.302,6.377,4.632l49.684,5.891L296.282,208.62z"/> </g> </g></symbol><symbol id="like" viewBox="0 0 58 58"><title></title><path d="M9.5,43c-2.757,0-5,2.243-5,5s2.243,5,5,5s5-2.243,5-5S12.257,43,9.5,43z M9.5,51c-1.654,0-3-1.346-3-3s1.346-3,3-3 s3,1.346,3,3S11.154,51,9.5,51z"/><path d="M56.5,35c0-2.495-1.375-3.662-2.715-4.233C54.835,29.85,55.5,28.501,55.5,27c0-2.757-2.243-5-5-5H36.134l0.729-3.41 c0.973-4.549,0.334-9.716,0.116-11.191C36.461,3.906,33.372,0,30.013,0h-0.239C28.178,0,25.5,0.909,25.5,7 c0,8.023-2.002,11.694-3.681,13.36c-1.647,1.634-3.231,1.616-3.319,1.64h-1v-2h-16v38h16v-2h28c2.757,0,5-2.243,5-5 c0-1.164-0.4-2.236-1.069-3.087C51.745,47.476,53.5,45.439,53.5,43c0-1.164-0.4-2.236-1.069-3.087 C54.745,39.476,56.5,37.439,56.5,35z M3.5,56V22h12v34H3.5z M51.5,38h-3h-8c-0.552,0-1,0.447-1,1s0.448,1,1,1h8 c1.654,0,3,1.346,3,3s-1.346,3-3,3h-2h-1h-7c-0.552,0-1,0.447-1,1s0.448,1,1,1h7c1.654,0,3,1.346,3,3s-1.346,3-3,3h-28V24 l0.969-0.001c0.097,0.019,2.42,0.05,4.682-2.144C26.037,19.059,27.5,14.061,27.5,7c0-1.867,0.295-5,2.274-5h0.239 C32.244,2,34.621,5.13,35,7.691c0.207,1.392,0.81,6.26-0.093,10.48L33.662,24H50.5c1.654,0,3,1.346,3,3s-1.346,3-3,3h-2h-1h-7 c-0.552,0-1,0.447-1,1s0.448,1,1,1h7c0.883,0,2.825,0.04,3.854,0.193C53.965,32.58,54.5,33.595,54.5,35 C54.5,36.654,53.154,38,51.5,38z"/></symbol><symbol id="medical-history" viewBox="0 0 512 512"><title></title><g> <g> <rect x="96" y="362.67" width="42.667" height="21.333"/> </g> </g><g> <g> <rect x="96" y="405.33" width="64" height="21.333"/> </g> </g><g> <g> <path d="M502.402,456.139l-118.4-118.414V74.667c0-17.673-14.327-32-32-32H137.6C132.658,18.323,111.137,0,85.335,0 S38.013,18.323,33.071,42.667h-1.069c-17.673,0-32,14.327-32,32V480c0,17.673,14.327,32,32,32h320c17.673,0,32-14.327,32-32 v-49.73l72.139,72.13c6.128,6.156,14.46,9.612,23.147,9.6c8.682-0.001,17.007-3.453,23.142-9.596 C515.198,489.621,515.186,468.907,502.402,456.139z M85.335,21.333c13.932,0,25.778,8.906,30.172,21.333H55.164 C59.557,30.239,71.403,21.333,85.335,21.333z M362.669,480c0,5.891-4.776,10.667-10.667,10.667h-320 c-5.891,0-10.667-4.776-10.667-10.667V74.667C21.335,68.776,26.111,64,32.002,64h85.333v117.333 c0,5.891-4.776,10.667-10.667,10.667c-5.891,0-10.667-4.776-10.667-10.667v-96H74.669v96c0,17.673,14.327,32,32,32 s32-14.327,32-32V64h213.333c5.891,0,10.667,4.776,10.667,10.667V316.39l-32-32.004V96c0-5.891-4.776-10.667-10.667-10.667h-160 v21.333h149.333V265.38l-59.232-29.55c-3.007-1.507-6.549-1.507-9.556,0c-0.572,0.286-1.099,0.625-1.595,0.994l-0.017-0.023 l-30.272,22.677l-17.067-59.733c-0.498-1.747-1.433-3.338-2.718-4.622c-4.167-4.165-10.92-4.163-15.085,0.003L144.919,224H64.002 c-5.891,0-10.667,4.776-10.667,10.667v224c0,5.891,4.776,10.667,10.667,10.667h256c5.891,0,10.667-4.776,10.667-10.667v-81.724 l32,31.996V480z M279.447,289.718l-10.282-20.545l20.551,10.276L279.447,289.718z M309.335,355.611V448H74.669V245.333h74.667 c2.822,0.002,5.53-1.114,7.531-3.104l19.2-19.2l16.341,57.227c0.358,1.256,0.943,2.437,1.727,3.481 c3.536,4.712,10.222,5.665,14.934,2.129l32.422-24.316l25.487,50.983l0.027-0.013c0.498,0.989,1.153,1.918,1.978,2.744 L309.335,355.611z M291.607,307.723l16.117-16.117l140.908,140.907l-16.117,16.117L291.607,307.723z M487.341,487.339 c-4.451,4.451-11.667,4.451-16.117,0L447.6,463.715l16.117-16.117l23.623,23.623C491.792,475.672,491.792,482.888,487.341,487.339 z"/> </g> </g></symbol><symbol id="key" viewBox="0 0 499.312 499.312"><title></title><g> <g> <path d="M499.312,35.312L464,0l-83.28,83.28C356.6,57.904,323.088,43.312,288,43.312c-35.296,0-68.32,14.376-92.424,39.624 C182.616,63.872,160.752,51.312,136,51.312H72c-39.704,0-72,32.304-72,72v96c0,13.232,10.768,24,24,24h40v68.28l19.448,12.96 l-22.76,22.76l24,24l-24,24l24,24L64,440v13.528l27.472,45.784h25.064L144,453.528V243.312h38.232 c23.92,35.12,63.096,56,105.768,56c70.576,0,128-57.424,128-128c0-15.36-2.752-30.352-8.064-44.624L499.312,35.312z M128,449.096 l-20.528,34.216h-6.936L80,449.096v-2.472l27.312-27.312l-24-24l24-24l-24-24l25.24-25.24L80,303.032v-59.72h48V449.096z M192,219.312c0,4.408-3.584,8-8,8H24c-4.416,0-8-3.592-8-8v-96c0-30.88,25.128-56,56-56h64c30.872,0,56,25.12,56,56V219.312z M464,22.624l12.688,12.688L288,224l-44.688-44.688L256,166.624l32,32L464,22.624z M288,283.312 c-35.648,0-68.512-16.64-89.632-44.896c5.816-4.384,9.632-11.28,9.632-19.104v-96c0-8.848-1.68-17.296-4.616-25.136 C224.72,73.496,255.24,59.312,288,59.312c30.832,0,60.296,12.872,81.424,35.264L288,176l-32-32l-35.312,35.312L288,246.624 L395.304,139.32c3.08,10.344,4.696,21.056,4.696,31.992C400,233.072,349.76,283.312,288,283.312z"/> </g> </g><g> <g> <path d="M128,99.312H80c-17.648,0-32,14.352-32,32s14.352,32,32,32h48c17.648,0,32-14.352,32-32S145.648,99.312,128,99.312z M128,147.312H80c-8.824,0-16-7.176-16-16c0-8.824,7.176-16,16-16h48c8.824,0,16,7.176,16,16S136.824,147.312,128,147.312z"/> </g> </g><g> <g> <rect x="160" y="195.312" width="16" height="16"/> </g> </g><g> <g> <rect x="64" y="195.312" width="80" height="16"/> </g> </g><g> <g> <rect x="32" y="195.312" width="16" height="16"/> </g> </g></symbol></svg>